<?xml version="1.0" encoding="utf-8"?>
<!-- Generator: Adobe Illustrator 26.3.1, SVG Export Plug-In . SVG Version: 6.00 Build 0)  -->
<svg version="1.1" id="Layer_1" xmlns="http://www.w3.org/2000/svg" xmlns:xlink="http://www.w3.org/1999/xlink" x="0px" y="0px"
	 viewBox="0 0 236.1 87.4" style="enable-background:new 0 0 236.1 87.4;" xml:space="preserve">
<style type="text/css">
	.st0{fill:url(#SVGID_1_);}
	.st1{fill:#A133FF;}
	.st2{fill:#5500A4;}
	.st3{fill:#B268FF;}
	.st4{fill:#FFFFFF;}
</style>
<g>
	
		<linearGradient id="SVGID_1_" gradientUnits="userSpaceOnUse" x1="63.7708" y1="-10.6555" x2="18.9917" y2="68.6675" gradientTransform="matrix(1 0 0 -1 0 90.2)">
		<stop  offset="0" style="stop-color:#6600AE"/>
		<stop  offset="1" style="stop-color:#9400FF"/>
	</linearGradient>
	<polygon class="st0" points="0,22.3 0,87.4 37.8,65.8 75.6,87.4 75.6,66 56.6,54.2 75.6,43.4 75.6,22.3 37.8,0 	"/>
	<g>
		<polygon class="st1" points="19.2,32.2 19.2,54.2 37.9,65.7 37.9,43.6 		"/>
		<polygon class="st2" points="56.6,32.2 56.6,54.2 37.9,65.7 37.9,43.6 		"/>
		<polygon class="st3" points="37.9,43.6 19.2,32.2 37.9,21.4 56.6,32.2 		"/>
	</g>
</g>
<g>
	<path class="st4" d="M102.5,60.7V26.2h12.9c2.7,0,4.9,0.5,6.7,1.4c1.8,0.9,3.2,2.2,4.1,3.9c0.9,1.7,1.4,3.6,1.4,5.8
		s-0.5,4.1-1.4,5.8c-0.9,1.6-2.3,2.9-4.1,3.8s-4.1,1.2-6.7,1.2h-9.2v-5.2h8.4c1.6,0,2.8-0.2,3.8-0.6c1-0.4,1.7-1.1,2.2-1.9
		s0.7-1.9,0.7-3.1c0-1.2-0.2-2.3-0.7-3.1c-0.5-0.9-1.2-1.5-2.2-2c-1-0.5-2.3-0.7-3.8-0.7h-5.7v29.3L102.5,60.7L102.5,60.7z
		 M120.4,45.1l8.5,15.6h-7l-8.4-15.6H120.4z"/>
	<path class="st4" d="M142.3,61.2c-2.6,0-4.8-0.5-6.7-1.6s-3.3-2.6-4.3-4.6s-1.5-4.3-1.5-7.1c0-2.7,0.5-5,1.5-7s2.4-3.6,4.3-4.7
		s4-1.7,6.5-1.7c1.6,0,3.1,0.3,4.5,0.8s2.7,1.3,3.8,2.4c1.1,1.1,2,2.4,2.6,4.1c0.6,1.6,0.9,3.6,0.9,5.9v1.9h-21.2v-4.1H148
		c0-1.2-0.3-2.2-0.8-3.1c-0.5-0.9-1.2-1.6-2.1-2.2s-1.9-0.8-3.1-0.8c-1.2,0-2.3,0.3-3.3,0.9c-0.9,0.6-1.7,1.4-2.2,2.4
		s-0.8,2-0.8,3.2v3.6c0,1.5,0.3,2.8,0.8,3.9c0.6,1.1,1.3,1.9,2.3,2.5s2.1,0.9,3.5,0.9c0.9,0,1.7-0.1,2.4-0.4
		c0.7-0.3,1.3-0.6,1.9-1.1c0.5-0.5,0.9-1.1,1.2-1.8l5.7,0.6c-0.4,1.5-1,2.8-2,3.9s-2.3,2-3.9,2.6C146.1,60.9,144.3,61.2,142.3,61.2z
		"/>
	<path class="st4" d="M167.6,61.2c-2,0-3.9-0.5-5.5-1.6c-1.6-1-2.9-2.6-3.8-4.5c-0.9-2-1.4-4.4-1.4-7.2c0-2.9,0.5-5.3,1.4-7.3
		s2.2-3.5,3.9-4.5c1.6-1,3.4-1.5,5.4-1.5c1.5,0,2.8,0.3,3.7,0.8c1,0.5,1.8,1.1,2.3,1.8c0.6,0.7,1,1.4,1.3,2h0.3v-13h6.1v34.5h-6
		v-4.1H175c-0.3,0.6-0.8,1.3-1.4,2c-0.6,0.7-1.4,1.3-2.4,1.8C170.3,60.9,169.1,61.2,167.6,61.2z M169.3,56.2c1.3,0,2.4-0.4,3.3-1.1
		c0.9-0.7,1.6-1.7,2.1-2.9c0.5-1.3,0.7-2.7,0.7-4.4s-0.2-3.1-0.7-4.4c-0.5-1.2-1.2-2.2-2.1-2.9c-0.9-0.7-2-1-3.3-1
		c-1.4,0-2.5,0.4-3.4,1.1c-0.9,0.7-1.6,1.7-2.1,2.9s-0.7,2.7-0.7,4.3s0.2,3.1,0.7,4.3c0.5,1.3,1.2,2.3,2.1,3
		C166.9,55.8,168,56.2,169.3,56.2z"/>
	<path class="st4" d="M202.5,49.8v-15h6.1v25.9h-5.9v-4.6h-0.3c-0.6,1.4-1.5,2.6-2.9,3.6c-1.3,0.9-3,1.4-4.9,1.4
		c-1.7,0-3.2-0.4-4.5-1.1s-2.3-1.9-3-3.3c-0.7-1.5-1.1-3.2-1.1-5.3V34.9h6.1v15.5c0,1.6,0.4,2.9,1.3,3.9c0.9,1,2.1,1.4,3.5,1.4
		c0.9,0,1.8-0.2,2.6-0.7c0.8-0.4,1.5-1.1,2.1-2S202.5,51.2,202.5,49.8z"/>
	<path class="st4" d="M218.9,34.9l5.2,9.6l5.3-9.6h6.5l-7.8,12.9l7.9,12.9h-6.4l-5.5-9.3l-5.4,9.3h-6.5l7.9-12.9l-7.7-12.9
		C212.4,34.9,218.9,34.9,218.9,34.9z"/>
</g>
</svg>
